<?xml version="1.0" encoding="utf-8"?>
<!-- Generator: Adobe Illustrator 16.0.0, SVG Export Plug-In . SVG Version: 6.00 Build 0)  -->
<!DOCTYPE svg PUBLIC "-//W3C//DTD SVG 1.1//EN" "http://www.w3.org/Graphics/SVG/1.1/DTD/svg11.dtd">
<svg version="1.1" id="Слой_1" xmlns="http://www.w3.org/2000/svg" xmlns:xlink="http://www.w3.org/1999/xlink" x="0px" y="0px"
	 width="17px" height="17.979px" viewBox="0 0 17 17.979" enable-background="new 0 0 17 17.979" xml:space="preserve">
<g>
	<polygon fill="#0D0F0F" points="2.442,16.293 1.089,1.111 15.961,1.111 14.606,16.29 8.516,17.979 	"/>
	<polygon fill="#8F8EAF" points="8.525,16.688 13.446,15.323 14.604,2.353 8.525,2.353 	"/>
	<g>
		<polygon fill="#FFFFFF" points="8.525,7.853 10.989,7.853 11.159,5.946 8.525,5.946 8.525,4.084 8.532,4.084 13.194,4.084 
			13.149,4.584 12.691,9.715 8.525,9.715 		"/>
		<polygon fill="#FFFFFF" points="8.536,12.688 8.528,12.69 6.455,12.131 6.322,10.646 5.314,10.646 4.453,10.646 4.714,13.569 
			8.528,14.628 8.536,14.625 		"/>
		<polygon fill="#FFFFFF" points="10.831,9.636 10.606,12.129 8.53,12.689 8.53,14.627 12.347,13.569 12.375,13.255 12.699,9.636 		
			"/>
		<polygon fill="#FFFFFF" points="8.532,4.084 8.532,5.24 8.532,5.941 8.532,5.946 4.04,5.946 4.04,5.946 4.034,5.946 3.997,5.527 
			3.912,4.584 3.868,4.084 		"/>
		<polygon fill="#FFFFFF" points="8.525,7.854 8.525,9.01 8.525,9.71 8.525,9.715 6.484,9.715 6.484,9.715 6.478,9.715 6.44,9.297 
			6.355,8.353 6.311,7.854 		"/>
	</g>
</g>
</svg>
