<?xml version="1.0" encoding="utf-8"?>
<!-- Generator: Adobe Illustrator 16.0.0, SVG Export Plug-In . SVG Version: 6.00 Build 0)  -->
<!DOCTYPE svg PUBLIC "-//W3C//DTD SVG 1.1//EN" "http://www.w3.org/Graphics/SVG/1.1/DTD/svg11.dtd">
<svg version="1.1" id="Слой_1" xmlns="http://www.w3.org/2000/svg" xmlns:xlink="http://www.w3.org/1999/xlink" x="0px" y="0px"
	 width="17.5px" height="18.204px" viewBox="0 0 17.5 18.204" enable-background="new 0 0 17.5 18.204" xml:space="preserve">
<g>
	<polygon fill="#0D0F0F" points="2.643,16.518 1.289,1.336 16.161,1.336 14.807,16.516 8.717,18.203 	"/>
	<polygon fill="#8F8EAF" points="8.725,16.912 13.646,15.549 14.805,2.578 8.725,2.578 	"/>
	<polygon fill="#FFFFFF" points="8.725,8.209 6.262,8.209 6.092,6.301 8.725,6.301 8.725,4.439 8.719,4.439 4.057,4.439 
		4.102,4.939 4.559,10.07 8.725,10.07 	"/>
	<polygon fill="#FFFFFF" points="8.725,13.043 8.717,13.045 6.644,12.486 6.511,11.002 5.504,11.002 4.643,11.002 4.902,13.924 
		8.717,14.982 8.725,14.98 	"/>
	<polygon fill="#FFFFFF" points="8.719,8.209 8.719,10.07 11.012,10.07 10.795,12.484 8.719,13.045 8.719,14.982 12.536,13.924 
		12.563,13.609 13.001,8.709 13.047,8.209 12.545,8.209 	"/>
	<polygon fill="#FFFFFF" points="8.719,4.439 8.719,5.596 8.719,6.297 8.719,6.301 13.21,6.301 13.21,6.301 13.216,6.301 
		13.254,5.883 13.338,4.939 13.383,4.439 	"/>
</g>
</svg>
