<?xml version="1.0" encoding="utf-8"?>
<!-- Generator: Adobe Illustrator 16.0.0, SVG Export Plug-In . SVG Version: 6.00 Build 0)  -->
<!DOCTYPE svg PUBLIC "-//W3C//DTD SVG 1.1//EN" "http://www.w3.org/Graphics/SVG/1.1/DTD/svg11.dtd">
<svg version="1.1" id="Слой_1" xmlns="http://www.w3.org/2000/svg" xmlns:xlink="http://www.w3.org/1999/xlink" x="0px" y="0px"
	 width="19.25px" height="20.5px" viewBox="0 0 19.25 20.5" enable-background="new 0 0 19.25 20.5" xml:space="preserve">
<g>
	<path fill-rule="evenodd" clip-rule="evenodd" d="M6.604,15.574c-0.172-0.004-0.349-0.016-0.523-0.008
		c-0.266,0.014-0.522,0.076-0.754,0.211c-0.072,0.043-0.141,0.1-0.196,0.162c-0.094,0.104-0.094,0.219-0.017,0.334
		c0.078,0.121,0.194,0.195,0.317,0.26c0.272,0.145,0.565,0.229,0.863,0.299c0.562,0.133,1.131,0.207,1.705,0.26
		c0.799,0.074,1.6,0.1,2.4,0.076c0.508-0.014,1.016-0.049,1.522-0.09c0.625-0.051,1.246-0.15,1.854-0.313
		c0.373-0.102,0.736-0.225,1.068-0.43c0.143-0.092,0.273-0.195,0.375-0.336c0.139-0.189,0.172-0.396,0.104-0.623
		c-0.006-0.025-0.016-0.049-0.025-0.086c0.205,0.105,0.4,0.209,0.539,0.389c0.156,0.207,0.145,0.432,0.049,0.656
		c-0.102,0.23-0.279,0.396-0.482,0.539c-0.328,0.229-0.689,0.379-1.066,0.506c-0.48,0.16-0.971,0.279-1.471,0.357
		c-0.465,0.074-0.932,0.139-1.4,0.186c-0.854,0.084-1.711,0.113-2.569,0.086c-0.409-0.014-0.818-0.029-1.226-0.063
		c-0.834-0.064-1.659-0.18-2.468-0.406c-0.41-0.115-0.811-0.256-1.175-0.488c-0.184-0.113-0.351-0.25-0.469-0.434
		c-0.204-0.318-0.169-0.627,0.102-0.889c0.226-0.219,0.501-0.346,0.799-0.432c0.39-0.115,0.79-0.137,1.192-0.111
		c0.042,0.002,0.085,0.006,0.128,0.01c0.137,0.004,0.258,0.045,0.375,0.119C6.303,15.408,6.459,15.49,6.604,15.574z"/>
	<path fill-rule="evenodd" clip-rule="evenodd" d="M11.51,1.048c0.037,0.063,0.076,0.126,0.113,0.189
		c0.191,0.338,0.33,0.696,0.375,1.085c0.049,0.429-0.021,0.841-0.188,1.237c-0.18,0.433-0.438,0.818-0.744,1.167
		c-0.344,0.39-0.704,0.765-1.059,1.144C9.718,6.18,9.424,6.483,9.191,6.839C9.063,7.034,8.958,7.24,8.91,7.472
		c-0.041,0.205-0.026,0.405,0.051,0.6c0.271,0.685,0.572,1.354,0.943,1.992c0.098,0.169,0.198,0.336,0.291,0.512
		c-0.089-0.066-0.179-0.132-0.267-0.199C9.417,9.978,8.936,9.543,8.51,9.052c-0.317-0.368-0.602-0.76-0.789-1.211
		c-0.133-0.317-0.21-0.645-0.169-0.992c0.029-0.254,0.124-0.485,0.256-0.703c0.208-0.343,0.477-0.637,0.775-0.9
		c0.418-0.369,0.848-0.728,1.274-1.088c0.382-0.322,0.761-0.649,1.091-1.028c0.238-0.275,0.445-0.57,0.566-0.918
		c0.131-0.375,0.129-0.749-0.004-1.122c-0.006-0.011-0.008-0.021-0.012-0.032C11.504,1.054,11.506,1.052,11.51,1.048z"/>
	<path fill-rule="evenodd" clip-rule="evenodd" d="M8.257,10.248c-0.097,0.026-0.193,0.052-0.288,0.079
		c-0.324,0.094-0.646,0.192-0.947,0.347c-0.069,0.035-0.134,0.079-0.197,0.122c-0.028,0.02-0.055,0.044-0.077,0.07
		c-0.091,0.102-0.08,0.173,0.05,0.212c0.145,0.044,0.295,0.078,0.446,0.096c0.86,0.099,1.724,0.087,2.587,0.063
		c0.463-0.013,0.927-0.032,1.39-0.063c0.457-0.03,0.916-0.071,1.371-0.125c0.414-0.049,0.824-0.122,1.236-0.186
		c0.004,0,0.006,0.001,0.021,0.004c-0.047,0.042-0.088,0.082-0.133,0.117c-0.316,0.244-0.631,0.49-0.951,0.728
		c-0.049,0.035-0.123,0.043-0.186,0.057c-0.596,0.115-1.195,0.203-1.799,0.266c-0.751,0.078-1.503,0.135-2.259,0.131
		c-0.459-0.004-0.92-0.012-1.378-0.037c-0.547-0.031-1.089-0.098-1.615-0.254c-0.2-0.059-0.394-0.133-0.563-0.257
		c-0.122-0.088-0.22-0.195-0.234-0.357c-0.009-0.137,0.04-0.25,0.129-0.35c0.126-0.139,0.288-0.221,0.457-0.291
		c0.3-0.123,0.613-0.193,0.932-0.242c0.646-0.104,1.297-0.147,1.951-0.141c0.02,0,0.038,0.002,0.057,0.003
		C8.256,10.241,8.256,10.244,8.257,10.248z"/>
	<path fill-rule="evenodd" clip-rule="evenodd" d="M10.725,10.951c0.133-0.154,0.266-0.294,0.379-0.447
		c0.16-0.215,0.268-0.453,0.283-0.726c0.01-0.193-0.025-0.378-0.119-0.544c-0.127-0.224-0.264-0.442-0.406-0.657
		c-0.15-0.231-0.305-0.462-0.41-0.72c-0.158-0.392-0.156-0.789-0.053-1.192c0.144-0.563,0.472-1.003,0.925-1.356
		c0.465-0.363,0.994-0.594,1.553-0.769c0.461-0.142,0.93-0.234,1.41-0.288c0.029-0.004,0.061-0.005,0.096,0.004
		c-0.02,0.013-0.039,0.025-0.059,0.04c-0.568,0.368-1.123,0.762-1.641,1.199c-0.303,0.255-0.59,0.521-0.826,0.842
		c-0.15,0.205-0.242,0.426-0.207,0.688c0.02,0.161,0.061,0.316,0.133,0.461c0.109,0.222,0.227,0.44,0.342,0.659
		c0.125,0.236,0.24,0.477,0.295,0.742c0.086,0.429-0.021,0.814-0.268,1.166c-0.242,0.342-0.574,0.572-0.957,0.732
		C11.045,10.849,10.887,10.896,10.725,10.951z"/>
	<path fill-rule="evenodd" clip-rule="evenodd" d="M13.24,13.398c-0.215,0.076-0.422,0.152-0.631,0.221
		c-0.529,0.168-1.074,0.283-1.625,0.357c-0.648,0.088-1.297,0.123-1.951,0.1c-0.425-0.016-0.848-0.051-1.267-0.121
		c-0.416-0.068-0.825-0.16-1.21-0.338c-0.145-0.068-0.282-0.146-0.39-0.27c-0.103-0.117-0.12-0.246-0.053-0.387
		c0.073-0.152,0.194-0.262,0.33-0.354c0.266-0.18,0.558-0.295,0.877-0.334c0.033-0.004,0.067,0,0.11,0
		c-0.04,0.039-0.076,0.072-0.107,0.107c-0.135,0.158-0.115,0.305,0.057,0.424c0.146,0.098,0.311,0.146,0.479,0.188
		c0.336,0.078,0.68,0.111,1.024,0.129c0.445,0.021,0.889,0.01,1.331-0.025c0.653-0.053,1.297-0.154,1.922-0.35
		c0.023-0.008,0.057-0.006,0.074,0.006c0.334,0.207,0.668,0.414,1,0.623C13.219,13.379,13.225,13.385,13.24,13.398z"/>
	<path fill-rule="evenodd" clip-rule="evenodd" d="M7.943,14.18c-0.034,0.055-0.06,0.09-0.079,0.129
		c-0.054,0.105-0.03,0.201,0.063,0.271c0.121,0.094,0.263,0.129,0.408,0.158c0.379,0.074,0.763,0.078,1.147,0.064
		c0.421-0.014,0.839-0.061,1.253-0.135c0.357-0.064,0.711-0.15,1.051-0.287c0.021-0.008,0.057-0.008,0.072,0.004
		c0.355,0.234,0.711,0.471,1.066,0.707c0.006,0.006,0.01,0.012,0.025,0.021c-0.055,0.033-0.105,0.064-0.158,0.092
		c-0.412,0.221-0.854,0.359-1.309,0.463c-0.842,0.189-1.697,0.254-2.558,0.221c-0.462-0.02-0.92-0.068-1.366-0.197
		c-0.208-0.059-0.408-0.133-0.587-0.256c-0.303-0.211-0.343-0.498-0.11-0.781c0.203-0.248,0.472-0.379,0.778-0.439
		C7.736,14.197,7.833,14.191,7.943,14.18z"/>
	<path fill-rule="evenodd" clip-rule="evenodd" d="M17.25,16.887c0.004,0.172-0.039,0.328-0.105,0.477
		c-0.127,0.281-0.332,0.5-0.57,0.688c-0.381,0.303-0.816,0.51-1.27,0.676c-0.607,0.223-1.234,0.363-1.871,0.461
		c-0.723,0.109-1.447,0.156-2.178,0.156c-0.537-0.002-1.071-0.031-1.603-0.086c-1.052-0.109-2.082-0.32-3.085-0.656
		c-0.262-0.088-0.519-0.191-0.776-0.289c-0.021-0.008-0.038-0.018-0.057-0.031c0.219,0.047,0.438,0.096,0.657,0.141
		c0.539,0.111,1.081,0.207,1.629,0.262c0.538,0.055,1.077,0.104,1.616,0.137c0.555,0.033,1.109,0.031,1.664-0.004
		c0.43-0.029,0.859-0.059,1.287-0.111c1-0.121,1.979-0.342,2.912-0.729c0.525-0.217,1.02-0.482,1.461-0.84
		C17.057,17.059,17.15,16.975,17.25,16.887z"/>
	<path fill-rule="evenodd" clip-rule="evenodd" d="M13.74,14.16c0.121-0.094,0.23-0.176,0.338-0.264
		c0.398-0.324,0.766-0.684,1.059-1.111c0.197-0.283,0.35-0.59,0.418-0.936c0.121-0.599-0.234-0.965-0.639-1.13
		c-0.256-0.105-0.521-0.123-0.793-0.07c-0.006,0.001-0.012,0-0.021-0.009c0.068-0.045,0.135-0.092,0.205-0.133
		c0.334-0.193,0.688-0.31,1.078-0.288c0.521,0.029,0.965,0.353,1.115,0.857c0.211,0.704,0.074,1.351-0.385,1.921
		c-0.295,0.365-0.68,0.607-1.102,0.797c-0.385,0.172-0.785,0.287-1.199,0.355C13.795,14.154,13.773,14.156,13.74,14.16z"/>
</g>
</svg>
