<?xml version="1.0" encoding="utf-8"?>
<!-- Generator: Adobe Illustrator 16.0.0, SVG Export Plug-In . SVG Version: 6.00 Build 0)  -->
<!DOCTYPE svg PUBLIC "-//W3C//DTD SVG 1.1//EN" "http://www.w3.org/Graphics/SVG/1.1/DTD/svg11.dtd">
<svg version="1.1" id="Слой_1" xmlns="http://www.w3.org/2000/svg" xmlns:xlink="http://www.w3.org/1999/xlink" x="0px" y="0px"
	 width="16px" height="16.635px" viewBox="0 0 16 16.635" enable-background="new 0 0 16 16.635" xml:space="preserve">
<g>
	<polygon points="2.339,15.118 1.121,1.455 14.506,1.455 13.287,15.116 7.805,16.635 	"/>
	<polygon fill="#8F8EAF" points="7.802,15.457 12.231,14.229 13.273,2.555 7.802,2.555 	"/>
	<polygon fill="#ECEBEB" points="7.8,11.976 7.792,11.978 5.926,11.474 5.807,10.137 4.9,10.137 4.125,10.137 4.36,12.769 
		7.792,13.722 7.8,13.719 	"/>
	<polygon fill="#FFFFFF" points="8.025,9.299 8.025,7.623 5.962,7.623 6.204,4.993 8.03,4.944 8.025,3.202 4.689,3.202 4.565,4.438 
		4.171,8.849 4.13,9.299 4.582,9.299 	"/>
	<polygon fill="#FFFFFF" points="8.014,4.947 8.021,4.945 9.852,5.055 10.007,6.785 10.914,6.785 11.689,6.785 11.396,3.548 
		8.021,3.201 8.014,3.203 	"/>
	<polyline fill="#FFFFFF" points="11.516,4.952 11.373,3.202 7.836,3.202 7.836,4.289 7.836,4.948 7.836,4.952 11.516,4.952 	"/>
	<polygon fill="#FFFFFF" points="7.794,7.624 7.794,9.299 9.857,9.299 9.663,11.473 7.794,11.977 7.794,13.721 11.229,12.769 
		11.254,12.485 11.648,8.074 11.689,7.624 11.237,7.624 	"/>
	<path fill="#FFFFFF" d="M11.301,4.878"/>
</g>
</svg>
