<?xml version="1.0" encoding="utf-8"?>
<!-- Generator: Adobe Illustrator 16.0.0, SVG Export Plug-In . SVG Version: 6.00 Build 0)  -->
<!DOCTYPE svg PUBLIC "-//W3C//DTD SVG 1.1//EN" "http://www.w3.org/Graphics/SVG/1.1/DTD/svg11.dtd">
<svg version="1.1" id="Слой_1" xmlns="http://www.w3.org/2000/svg" xmlns:xlink="http://www.w3.org/1999/xlink" x="0px" y="0px"
	 width="14.485px" height="23.014px" viewBox="0 0 14.485 23.014" enable-background="new 0 0 14.485 23.014" xml:space="preserve">
<g>
	<path fill-rule="evenodd" clip-rule="evenodd" d="M8.003,21.631c-0.023-0.014-0.045-0.029-0.07-0.039
		c-0.441-0.148-0.438-0.148-0.457-0.6c-0.027-0.625-0.045-1.254-0.27-1.852c-0.018-0.045-0.01-0.105,0-0.156
		c0.121-0.635,0.243-1.268,0.367-1.902c0.008-0.044,0.023-0.086,0.036-0.129c0.18,0.662,0.116,1.404,0.701,1.91
		c-0.321,0.898-0.244,1.836-0.267,2.768C8.03,21.631,8.017,21.631,8.003,21.631z"/>
	<path fill-rule="evenodd" clip-rule="evenodd" d="M7.598,1C7.762,1.596,8.15,2.01,8.556,2.424c1.677,1.708,2.892,3.691,3.465,6.032
		c0.854,3.497,0.018,6.58-2.324,9.279c-0.326,0.375-0.684,0.722-1.002,1.06c-0.584-0.313-0.617-0.847-0.724-1.345
		c-0.044-0.202-0.067-0.411-0.095-0.619c-0.023-0.165-0.097-0.29-0.279-0.285c-0.171,0.005-0.229,0.126-0.254,0.286
		c-0.099,0.611-0.207,1.223-0.314,1.832c-0.011,0.063-0.039,0.123-0.062,0.197c-0.037-0.02-0.062-0.029-0.081-0.045
		c-1.188-1.029-2.241-2.168-2.908-3.614c-0.516-1.121-0.83-2.31-0.893-3.533C2.951,9.104,3.435,6.663,4.775,4.434
		c0.54-0.897,1.276-1.636,2-2.382c0.211-0.218,0.421-0.438,0.616-0.67C7.475,1.282,7.52,1.148,7.598,1z M6.823,3.434
		C6.808,3.429,6.792,3.423,6.776,3.418c-0.09,0.1-0.186,0.195-0.268,0.3C6.274,4.015,6.039,4.31,5.816,4.615
		c-1.323,1.815-2.01,5.57-1.614,7.68c0.322,1.711,0.933,3.26,2.139,4.544c0.076,0.081,0.15,0.164,0.257,0.28
		c0.015-0.136,0.02-0.222,0.036-0.305c0.035-0.184,0.075-0.368,0.114-0.551c0.024-0.116,0.072-0.232,0.072-0.348
		c0.004-4.096,0.003-8.191,0.003-12.286C6.823,3.564,6.823,3.5,6.823,3.434z"/>
</g>
</svg>
