<?xml version="1.0" encoding="utf-8"?>
<!-- Generator: Adobe Illustrator 16.0.0, SVG Export Plug-In . SVG Version: 6.00 Build 0)  -->
<!DOCTYPE svg PUBLIC "-//W3C//DTD SVG 1.1//EN" "http://www.w3.org/Graphics/SVG/1.1/DTD/svg11.dtd">
<svg version="1.1" id="Слой_1" xmlns="http://www.w3.org/2000/svg" xmlns:xlink="http://www.w3.org/1999/xlink" x="0px" y="0px"
	 width="19.855px" height="24.592px" viewBox="0 0 19.855 24.592" enable-background="new 0 0 19.855 24.592" xml:space="preserve">
<g>
	<path fill-rule="evenodd" clip-rule="evenodd" d="M12.936,12.144c0.035,0.151,0.085,0.276,0.091,0.402
		c0.145,3.573-0.488,6.985-2.144,10.179c-0.062,0.117-0.241,0.258-0.356,0.249c-2.139-0.153-4.287-0.262-6.346-0.943
		c-1.007-0.333-1.909-0.842-2.65-1.626c-0.513-0.543-0.665-1.154-0.407-1.835c0.476-1.258,1.192-2.276,2.487-2.892
		c2.858-1.358,5.795-2.49,8.828-3.383C12.593,12.249,12.749,12.201,12.936,12.144z"/>
	<path fill-rule="evenodd" clip-rule="evenodd" d="M4.734,4.47c2.274,0.486,4.507,0.963,6.823,1.458
		c-0.481,0.789-0.936,1.534-1.381,2.264C9.136,7.974,8.148,7.77,7.162,7.554C7.066,7.533,6.937,7.459,6.906,7.378
		C6.485,6.267,5.62,5.49,4.858,4.636C4.826,4.6,4.799,4.558,4.734,4.47z"/>
	<path fill-rule="evenodd" clip-rule="evenodd" d="M4.519,3.641C6.107,2.707,7.552,1.859,9.013,1
		c0.627,1.355,1.237,2.674,1.868,4.037C8.802,4.581,6.73,4.126,4.519,3.641z"/>
	<path fill-rule="evenodd" clip-rule="evenodd" d="M14.016,9.7c0.628-0.838,1.245-1.661,1.895-2.526
		c1.169,0.593,2.006,1.564,2.835,2.629c-0.984,0.268-1.921,0.526-2.86,0.772c-0.098,0.026-0.23,0.005-0.321-0.042
		C15.048,10.266,14.541,9.984,14.016,9.7z"/>
	<path fill-rule="evenodd" clip-rule="evenodd" d="M6.711,13.428c1.1-1.212,2.344-2.592,3.604-3.956
		c0.092-0.098,0.321-0.157,0.449-0.117c0.566,0.179,1.118,0.401,1.665,0.604C11.004,12.123,8.731,12.806,6.711,13.428z"/>
	<path fill-rule="evenodd" clip-rule="evenodd" d="M15.125,6.774c-0.652,0.844-1.223,1.596-1.815,2.329
		c-0.073,0.091-0.296,0.146-0.41,0.106c-0.624-0.219-1.235-0.473-1.852-0.715c0.427-0.731,0.843-1.466,1.288-2.183
		c0.063-0.1,0.283-0.182,0.403-0.153C13.498,6.334,14.247,6.543,15.125,6.774z"/>
	<path fill-rule="evenodd" clip-rule="evenodd" d="M7.166,8.458c0.851,0.18,1.578,0.335,2.401,0.51
		c-1.444,1.926-3.127,3.502-5.059,4.829C5.851,12.277,7.61,10.982,7.166,8.458z"/>
	<path fill-rule="evenodd" clip-rule="evenodd" d="M14.487,10.944c-0.811,0.231-1.469,0.418-2.127,0.605
		c-0.016-0.022-0.032-0.045-0.048-0.068c0.3-0.314,0.591-0.638,0.906-0.936c0.072-0.068,0.245-0.099,0.339-0.063
		C13.832,10.591,14.088,10.742,14.487,10.944z"/>
</g>
</svg>
