<?xml version="1.0" encoding="utf-8"?>
<!-- Generator: Adobe Illustrator 16.0.0, SVG Export Plug-In . SVG Version: 6.00 Build 0)  -->
<!DOCTYPE svg PUBLIC "-//W3C//DTD SVG 1.1//EN" "http://www.w3.org/Graphics/SVG/1.1/DTD/svg11.dtd">
<svg version="1.1" id="Слой_1" xmlns="http://www.w3.org/2000/svg" xmlns:xlink="http://www.w3.org/1999/xlink" x="0px" y="0px"
	 width="17.5px" height="17.842px" viewBox="1126 1232.658 17.5 17.842" enable-background="new 1126 1232.658 17.5 17.842"
	 xml:space="preserve">
<g>
	<path d="M1134.073,1234.11c0.411-0.234,0.945-0.236,1.355,0c2.066,1.167,4.13,2.331,6.197,3.499
		c0.387,0.22,0.648,0.651,0.643,1.098v7.02c0.002,0.465-0.281,0.908-0.691,1.122c-2.059,1.16-4.115,2.322-6.173,3.483
		c-0.418,0.241-0.965,0.222-1.37-0.039c-0.617-0.357-1.236-0.715-1.853-1.071c-0.126-0.074-0.268-0.135-0.356-0.257
		c0.078-0.106,0.219-0.119,0.333-0.166c0.258-0.082,0.494-0.213,0.73-0.341c0.06-0.041,0.133-0.025,0.191,0.012
		c0.527,0.302,1.049,0.613,1.58,0.912c0.111,0.065,0.227-0.021,0.323-0.074c2.018-1.141,4.042-2.278,6.059-3.42
		c0.076-0.036,0.115-0.115,0.111-0.198c0.002-2.314,0-4.631,0-6.945c0.01-0.094-0.045-0.179-0.129-0.216
		c-2.051-1.156-4.102-2.313-6.151-3.469c-0.072-0.049-0.168-0.05-0.241,0c-2.051,1.155-4.101,2.313-6.15,3.469
		c-0.084,0.038-0.14,0.122-0.131,0.216c0,2.314,0,4.631,0,6.946c-0.006,0.082,0.038,0.16,0.112,0.196
		c0.548,0.309,1.095,0.617,1.643,0.927c0.31,0.165,0.688,0.265,1.027,0.138c0.299-0.107,0.51-0.414,0.504-0.732
		c0.003-2.303-0.002-4.604,0.001-6.905c-0.006-0.103,0.091-0.187,0.189-0.178c0.265-0.002,0.526-0.003,0.79,0
		c0.108-0.002,0.185,0.107,0.172,0.211c-0.002,2.317,0.002,4.633-0.002,6.949c0,0.618-0.253,1.29-0.824,1.592
		c-0.704,0.364-1.573,0.287-2.268-0.062c-0.602-0.302-1.177-0.656-1.768-0.978c-0.41-0.213-0.694-0.657-0.691-1.122v-7.02
		c-0.005-0.456,0.265-0.896,0.666-1.111C1129.958,1236.435,1132.016,1235.272,1134.073,1234.11z"/>
	<path d="M1135.867,1238.971c0.898-0.056,1.857-0.032,2.666,0.409c0.625,0.339,0.973,1.05,0.984,1.744
		c-0.018,0.094-0.117,0.146-0.207,0.139c-0.26-0.001-0.52,0.005-0.779-0.002c-0.111,0.006-0.176-0.097-0.189-0.194
		c-0.074-0.332-0.254-0.662-0.568-0.823c-0.48-0.239-1.037-0.228-1.561-0.223c-0.383,0.021-0.794,0.055-1.118,0.279
		c-0.248,0.169-0.323,0.513-0.235,0.79c0.084,0.199,0.314,0.264,0.501,0.322c1.084,0.283,2.227,0.255,3.288,0.627
		c0.439,0.152,0.871,0.446,1.02,0.906c0.199,0.616,0.111,1.353-0.328,1.848c-0.354,0.408-0.873,0.628-1.389,0.75
		c-0.688,0.153-1.4,0.156-2.1,0.088c-0.656-0.074-1.337-0.247-1.844-0.694c-0.434-0.377-0.646-0.962-0.624-1.527
		c0.004-0.096,0.101-0.162,0.191-0.153c0.262-0.003,0.525-0.003,0.787,0c0.104-0.009,0.182,0.083,0.188,0.182
		c0.047,0.315,0.166,0.647,0.442,0.836c0.533,0.344,1.201,0.32,1.81,0.33c0.508-0.022,1.074-0.028,1.488-0.364
		c0.217-0.189,0.281-0.509,0.223-0.782c-0.064-0.232-0.307-0.34-0.514-0.411c-1.068-0.337-2.227-0.215-3.285-0.596
		c-0.43-0.152-0.845-0.438-1.01-0.881c-0.229-0.623-0.124-1.396,0.361-1.872C1134.537,1239.221,1135.219,1239.038,1135.867,1238.971
		L1135.867,1238.971z"/>
</g>
</svg>
