<?xml version="1.0" encoding="utf-8"?>
<!-- Generator: Adobe Illustrator 16.0.0, SVG Export Plug-In . SVG Version: 6.00 Build 0)  -->
<!DOCTYPE svg PUBLIC "-//W3C//DTD SVG 1.1//EN" "http://www.w3.org/Graphics/SVG/1.1/DTD/svg11.dtd">
<svg version="1.1" id="Слой_1" xmlns="http://www.w3.org/2000/svg" xmlns:xlink="http://www.w3.org/1999/xlink" x="0px" y="0px"
	 width="22.25px" height="21.717px" viewBox="0 0 22.25 21.717" enable-background="new 0 0 22.25 21.717" xml:space="preserve">
<g>
	<path fill-rule="evenodd" clip-rule="evenodd" d="M12.825,21.717c-0.084-0.018-0.169-0.037-0.254-0.055
		c-0.8-0.166-1.325-0.654-1.649-1.387c-0.394-0.887-0.502-1.828-0.531-2.783c-0.009-0.316-0.001-0.633-0.001-0.973
		c-1.259,0.354-2.417,0.334-3.453-0.445c-0.256,0.113-0.504,0.264-0.773,0.332c-0.783,0.197-1.413-0.113-1.945-0.666
		c-0.532-0.554-0.889-1.22-1.193-1.916C2.282,12.131,1.82,10.35,1.449,8.543C1.284,7.737,1.137,6.926,1.167,6.096
		c0.025-0.684,0.104-1.359,0.337-2.007c0.579-1.613,1.75-2.499,3.422-2.743c1.351-0.197,2.66,0.041,3.948,0.438
		C9.028,1.832,9.15,1.825,9.292,1.749c0.934-0.494,1.939-0.584,2.971-0.501c0.262,0.021,0.521,0.064,0.784,0.088
		c0.084,0.008,0.174-0.002,0.256-0.024c1.375-0.355,2.756-0.44,4.143-0.082c1.291,0.334,2.351,1.03,3.179,2.075
		c0.313,0.395,0.441,0.86,0.496,1.349c0.109,0.953-0.041,1.885-0.254,2.808c-0.409,1.781-1.096,3.455-1.982,5.05
		c-0.047,0.087-0.097,0.174-0.173,0.313c0.339-0.055,0.626-0.107,0.915-0.146c0.188-0.025,0.377-0.051,0.563-0.042
		c0.84,0.038,1.31,0.857,0.924,1.602c-0.219,0.421-0.581,0.703-0.969,0.957c-0.789,0.516-1.671,0.697-2.596,0.729
		c-0.141,0.006-0.281,0.002-0.455,0.002c-0.014,0.237-0.029,0.467-0.042,0.698c-0.04,0.785-0.126,1.561-0.326,2.32
		c-0.384,1.459-1.286,2.367-2.785,2.652c-0.197,0.039-0.393,0.082-0.589,0.121C13.176,21.717,13,21.717,12.825,21.717z
		 M10.852,15.412c0.051,1.084,0.096,2.151,0.152,3.213c0.029,0.555,0.173,1.076,0.479,1.549c0.3,0.465,0.709,0.77,1.257,0.877
		c0.42,0.086,0.832,0.023,1.244-0.064c1.233-0.258,1.98-0.986,2.165-2.248c0.128-0.875,0.245-1.75,0.362-2.627
		c0.043-0.316,0.077-0.635,0.113-0.926c0.352,0.018,0.674,0.057,0.994,0.048c0.928-0.022,1.79-0.261,2.512-0.87
		c0.158-0.131,0.305-0.293,0.406-0.469c0.176-0.308,0.003-0.618-0.352-0.638c-0.191-0.011-0.387,0.037-0.582,0.052
		c-0.468,0.038-0.938,0.086-1.407,0.1c-0.175,0.004-0.351-0.082-0.547-0.133c0.07-0.112,0.108-0.176,0.148-0.238
		c0.915-1.452,1.632-2.995,2.139-4.635c0.327-1.061,0.567-2.14,0.569-3.256c0.002-0.643-0.125-1.238-0.598-1.731
		c-0.554-0.58-1.174-1.055-1.92-1.352c-1.563-0.62-3.14-0.546-4.725-0.095c-0.08,0.023-0.17,0.034-0.252,0.023
		c-0.368-0.044-0.733-0.12-1.102-0.144c-0.873-0.058-1.711,0.08-2.473,0.535C9.259,2.487,9.12,2.493,8.931,2.43
		C7.639,1.999,6.32,1.736,4.952,1.957C3.468,2.197,2.476,3.023,2.05,4.485C1.798,5.353,1.753,6.241,1.874,7.132
		c0.199,1.466,0.551,2.9,0.984,4.315c0.304,0.994,0.651,1.974,1.164,2.882c0.229,0.408,0.49,0.795,0.852,1.099
		c0.57,0.479,1.2,0.47,1.751-0.032c0.13-0.117,0.242-0.253,0.358-0.385c0.457-0.515,0.91-1.033,1.37-1.544
		c0.042-0.046,0.127-0.102,0.175-0.088c0.351,0.099,0.697,0.214,1.048,0.327c-0.22,0.335-0.48,0.648-0.936,0.729
		c-0.265,0.047-0.528,0.112-0.785,0.191c-0.275,0.084-0.558,0.197-0.583,0.538c-0.026,0.36,0.244,0.522,0.521,0.646
		c0.538,0.239,1.105,0.29,1.685,0.217C9.996,15.962,10.454,15.75,10.852,15.412z"/>
	<path fill-rule="evenodd" clip-rule="evenodd" d="M17.067,6.434c-0.343,0-0.657-0.033-0.96,0.006
		c-1.099,0.139-1.608,0.845-1.441,1.945c0.135,0.896,0.514,1.699,0.924,2.492c0.241,0.467,0.477,0.938,0.738,1.394
		c0.177,0.309,0.395,0.595,0.601,0.9c-0.009,0.008-0.026,0.03-0.048,0.037c-0.531,0.17-0.719,0.569-0.777,1.091
		c-0.164,1.467-0.343,2.933-0.532,4.396c-0.031,0.244-0.118,0.486-0.216,0.713c-0.259,0.598-0.784,0.852-1.375,0.988
		c-0.287,0.066-0.584,0.109-0.878,0.115c-0.457,0.012-0.817-0.199-1.082-0.568c-0.278-0.391-0.406-0.83-0.447-1.305
		c-0.115-1.326-0.132-2.653-0.091-3.982c0.01-0.308,0.003-0.608-0.157-0.883c-0.24-0.412-0.598-0.604-1.123-0.573
		c0.164-0.426,0.292-0.838,0.477-1.222c0.439-0.913,0.616-1.869,0.518-2.871c-0.047-0.481-0.12-0.964-0.225-1.437
		c-0.189-0.853-0.844-1.227-1.69-1.164C8.77,6.544,8.291,6.704,7.834,6.931C7.78,6.957,7.725,6.98,7.64,7.02
		c0.016-0.16,0.024-0.298,0.043-0.433c0.151-1.048,0.432-2.048,1.1-2.898c0.728-0.927,1.714-1.296,2.862-1.282
		c2.918,0.036,4.639,2.044,5.371,3.854C17.034,6.304,17.043,6.35,17.067,6.434z"/>
	<path fill-rule="evenodd" clip-rule="evenodd" d="M8.672,2.952c-0.828,0.851-1.236,1.88-1.463,2.995
		C7.05,6.725,7.037,7.509,7.062,8.302C7.083,9,7.037,9.703,6.98,10.4c-0.079,0.968,0.189,1.797,0.872,2.489
		c0.034,0.034,0.067,0.066,0.1,0.101c0.004,0.004,0.005,0.012,0.017,0.037c-0.046,0.051-0.098,0.11-0.149,0.169
		c-0.458,0.522-0.918,1.042-1.373,1.567c-0.51,0.591-0.925,0.6-1.435,0.004c-0.507-0.594-0.819-1.298-1.096-2.017
		C3.201,10.9,2.721,8.986,2.436,7.025C2.324,6.251,2.373,5.476,2.577,4.718c0.337-1.251,1.155-1.976,2.426-2.192
		c1.054-0.179,2.083-0.013,3.102,0.248c0.157,0.04,0.311,0.089,0.466,0.135C8.596,2.917,8.619,2.93,8.672,2.952z"/>
	<path fill-rule="evenodd" clip-rule="evenodd" d="M17.281,12.68c-0.003-0.059-0.029-0.13-0.005-0.173
		c0.438-0.774,0.474-1.611,0.347-2.459C17.502,9.23,17.496,8.42,17.67,7.614c0.203-0.951-0.139-1.765-0.609-2.549
		c-0.691-1.149-1.606-2.06-2.825-2.645c-0.029-0.014-0.055-0.033-0.082-0.05c0-0.02,0-0.04,0-0.06c0.41-0.04,0.82-0.099,1.23-0.114
		c1.234-0.045,2.389,0.207,3.396,0.961c0.172,0.129,0.324,0.286,0.49,0.423c0.563,0.458,0.701,1.072,0.665,1.76
		c-0.088,1.733-0.606,3.354-1.31,4.917c-0.347,0.773-0.781,1.507-1.178,2.259c-0.03,0.059-0.071,0.111-0.107,0.166
		C17.32,12.682,17.301,12.681,17.281,12.68z"/>
	<path fill-rule="evenodd" clip-rule="evenodd" d="M10.648,9.594c0.024,0.738-0.167,1.425-0.465,2.094
		c-0.179,0.399-0.325,0.813-0.467,1.227c-0.044,0.127-0.088,0.167-0.224,0.154c-0.968-0.093-1.807-0.915-1.922-1.949
		c-0.042-0.382,0.03-0.776,0.036-1.166c0.011-0.693,0.011-1.387,0.02-2.081c0.001-0.065,0.017-0.163,0.061-0.191
		c0.574-0.375,1.188-0.645,1.892-0.599c0.472,0.031,0.757,0.27,0.844,0.73c0.111,0.588,0.186,1.183,0.275,1.775
		C10.682,9.59,10.665,9.593,10.648,9.594z M9.563,7.378c-0.128,0.029-0.249,0.027-0.33,0.083c-0.062,0.043-0.12,0.173-0.1,0.24
		C9.25,8.096,9.79,8.208,10.072,7.909c0.136-0.145,0.128-0.293-0.048-0.38C9.876,7.456,9.709,7.424,9.563,7.378z"/>
	<path fill-rule="evenodd" clip-rule="evenodd" d="M17.155,7.036c-0.035,0.283-0.058,0.559-0.107,0.829
		c-0.137,0.747-0.097,1.491,0.009,2.236c0.066,0.483,0.096,0.969-0.022,1.449c-0.04,0.162-0.099,0.318-0.163,0.521
		c-0.149-0.289-0.271-0.535-0.404-0.775c-0.411-0.744-0.833-1.486-1.076-2.306c-0.102-0.345-0.156-0.711-0.174-1.07
		c-0.021-0.427,0.214-0.71,0.62-0.846C16.16,6.963,16.733,6.943,17.155,7.036z M16.283,7.222c-0.185,0.047-0.334,0.067-0.468,0.124
		c-0.22,0.093-0.228,0.246-0.034,0.392c0.186,0.14,0.441,0.15,0.613-0.009c0.09-0.083,0.135-0.217,0.199-0.328
		C16.485,7.338,16.376,7.275,16.283,7.222z"/>
	<path fill-rule="evenodd" clip-rule="evenodd" d="M7.934,15.185c0.209-0.049,0.416-0.107,0.626-0.147
		c0.566-0.105,1.045-0.345,1.37-0.841c0.076-0.12,0.182-0.218,0.277-0.322c0.119-0.132,0.257-0.13,0.403-0.049
		c0.3,0.167,0.385,0.564,0.172,0.831c-0.618,0.777-1.433,0.951-2.361,0.76c-0.167-0.035-0.328-0.102-0.492-0.154
		C7.931,15.236,7.933,15.212,7.934,15.185z"/>
	<path fill-rule="evenodd" clip-rule="evenodd" d="M19.792,13.862c-0.301,0.295-0.647,0.506-1.046,0.62
		c-0.594,0.17-1.199,0.246-1.816,0.146c-0.256-0.041-0.275-0.072-0.253-0.331c0.03-0.354,0.162-0.508,0.507-0.585
		c0.047-0.009,0.111-0.012,0.15,0.011c0.562,0.347,1.175,0.293,1.787,0.236C19.346,13.939,19.568,13.896,19.792,13.862z"/>
</g>
</svg>
